<svg xmlns="http://www.w3.org/2000/svg" width="563.469" height="322.1" viewBox="0 0 563.469 322.1"><g transform="translate(789.039 -165.786)"><path d="M-530.887,213.354c14.782,0,23.669,5.409,23.669,17.1,0,7.439-3.575,12.367-10.046,14.686,7.245,2.128,12.753,7.345,12.753,16.716,0,15.363-14.685,19.13-27.536,19.13h-29.371V213.354Zm-.579,39.515H-543.64v14.108h12.174c5.409,0,8.986-1.741,8.986-7.053S-526.057,252.869-531.466,252.869Zm-1.064-25.505h-11.014v12.462l11.014.1c4.735,0,7.441-2.414,7.441-6.281S-527.795,227.364-532.53,227.364Z" fill="#fff"/><path d="M-500.048,280.986V213.354h28.5c13.721,0,27.73,4.928,27.73,22.8,0,11.206-5.507,17.295-12.949,20.288l18.648,24.542h-20.193l-16.134-22.028h-7.732v22.028Zm17.874-36.522h11.4c5.123,0,8.6-2.609,8.6-7.826s-3.478-7.827-8.6-7.827h-11.4Z" fill="#fff"/><path d="M-434.727,280.986l26.569-67.632h19.325l26.569,67.632h-18.358l-3.865-10.627h-28.02l-3.864,10.627Zm27.535-25.121H-389.8l-6.958-19.517a34.066,34.066,0,0,1-1.74-6.86,33.906,33.906,0,0,1-1.737,6.86Z" fill="#fff"/><path d="M-357.441,280.986V213.354h16.908l26.475,38.839c-.29-3.188-.387-7.44-.387-11.206V213.354h17.874v67.632h-16.908l-26.472-38.744c.29,3.188.384,7.439.384,11.112v27.632Z" fill="#fff"/><path d="M-260.931,213.354c24.152,0,35.361,14.1,35.361,33.816s-11.209,33.816-35.361,33.816H-287.89V213.354Zm0,15.457h-9.085v36.718h9.085c10.724,0,17-5.7,17-18.359S-250.207,228.811-260.931,228.811Z" fill="#fff"/><path d="M-538.231,291.755c8.405,0,16.812,2.03,22.7,5.413v16.424c-5.8-4.347-13.429-6.474-21.255-6.376-6.571.094-8.6,1.835-8.6,4.346,0,8.792,35.166,6.089,35.166,30.049,0,16.04-12.268,20.678-27.05,20.678-9.759,0-18.841-2.224-25.99-6.184V339.2a43.7,43.7,0,0,0,24.637,7.632c7.053,0,10.049-1.159,10.049-4.541,0-9.759-35.169-6.473-35.169-30.629C-563.738,298.134-552.145,291.755-538.231,291.755Z" fill="#fff"/><path d="M-478.776,293.206c16.716,0,29.47,5.41,29.47,23.189s-12.754,23.092-29.47,23.187h-8.889v21.257H-505.54V293.206Zm.869,15.458h-9.758v15.46h9.758c5.412,0,10.243-1.643,10.243-7.729S-472.495,308.664-477.907,308.664Z" fill="#fff"/><path d="M-445.837,360.839V293.206h28.5c13.72,0,27.73,4.928,27.73,22.8,0,11.206-5.507,17.3-12.949,20.288l18.648,24.543H-404.1l-16.134-22.029h-7.732v22.029Zm17.874-36.523h11.4c5.123,0,8.6-2.609,8.6-7.826s-3.478-7.826-8.6-7.826h-11.4Z" fill="#fff"/><path d="M-361.562,293.206v67.633h-17.874V293.206Z" fill="#fff"/><path d="M-354.823,360.839V293.206h16.909l26.474,38.839c-.29-3.188-.387-7.439-.387-11.206V293.206h17.874v67.633h-16.908l-26.472-38.745c.29,3.188.385,7.44.385,11.112v27.633Z" fill="#fff"/><path d="M-251.789,291.755a54.545,54.545,0,0,1,20.964,4.252v16.908a33.547,33.547,0,0,0-18.645-5.41c-10.92,0-21.257,5.6-21.257,19.517,0,16.716,12.27,19.9,20,19.9a19.482,19.482,0,0,0,4.636-.484v-22.8h16.908v34.1a59.106,59.106,0,0,1-22.415,4.544c-19.228,0-37.489-10.724-37.489-35.267C-289.086,301.8-270.63,291.755-251.789,291.755Z" fill="#fff"/><path d="M-530.972,373.058c14.783,0,23.67,5.41,23.67,17.1,0,7.44-3.575,12.368-10.047,14.687,7.246,2.127,12.753,7.344,12.753,16.716,0,15.363-14.685,19.13-27.535,19.13H-561.5V373.058Zm-.579,39.516h-12.173v14.107h12.173c5.41,0,8.986-1.74,8.986-7.052S-526.141,412.574-531.551,412.574Zm-1.063-25.506h-11.014V399.53l11.014.1c4.734,0,7.44-2.414,7.44-6.281S-527.88,387.068-532.614,387.068Z" fill="#fff"/><path d="M-465.785,371.608c24.156,0,36.233,16.426,36.233,35.266s-12.077,35.267-36.233,35.267-36.23-16.426-36.23-35.267S-489.937,371.608-465.785,371.608Zm0,16.426c-11.69,0-17.874,8.018-17.874,18.84s6.184,18.841,17.874,18.841,17.877-8.019,17.877-18.841S-454.091,388.034-465.785,388.034Z" fill="#fff"/><path d="M-432.479,440.691l26.569-67.633h19.325l26.569,67.633h-18.358l-3.865-10.627h-28.019l-3.865,10.627Zm27.535-25.122h17.393l-6.958-19.517a34.048,34.048,0,0,1-1.74-6.86,33.891,33.891,0,0,1-1.737,6.86Z" fill="#fff"/><path d="M-355.68,440.691V373.058h28.505c13.72,0,27.73,4.928,27.73,22.8,0,11.206-5.507,17.3-12.949,20.288l18.648,24.543H-313.94l-16.134-22.029H-337.8v22.029Zm17.875-36.523h11.4c5.123,0,8.6-2.609,8.6-7.826s-3.477-7.826-8.6-7.826h-11.4Z" fill="#fff"/><path d="M-262.527,373.058c24.152,0,35.361,14.1,35.361,33.816s-11.209,33.817-35.361,33.817h-26.959V373.058Zm0,15.458h-9.085v36.717h9.085c10.725,0,17-5.7,17-18.359S-251.8,388.516-262.527,388.516Z" fill="#fff"/><path d="M-623.529,213.356l-53.59,53.62h92.29l-87.39,85.36h85.82l-88.35,88.36h113.33v47.19h-227.62V440.7h60.45l53.64-53.61h-84.29l85.6-85.37h-92.07l88.36-88.36h-111.69v-47.57h227.62v47.57Z" fill="#fff"/></g></svg>